<?xml version="1.0" encoding="UTF-8"?>
<svg id="Calque_1" data-name="Calque 1" xmlns="http://www.w3.org/2000/svg" viewBox="0 0 1000 1000">
  <defs>
    <style>
      .cls-1 {
        fill: #edf9fc;
        stroke-width: 0px;
      }
    </style>
  </defs>
  <path class="cls-1" d="m901.36,528.33c-.2-7.96-.45-16.42-.72-25.39-2.93-95.48-58.46-139.33-58.46-139.33l12.67-13.64s7.8,13.64,31.18,13.64,28.26-9.74,28.26-9.74c0,0,4.87-2.93,4.87-24.36s-17.54-24.36-17.54-24.36c0,0-7.8-.97-35.08-.97s-27.27,26.31-27.27,26.31l-20.47,18.51s-28.25-71.12-60.41-145.17c-32.14-74.06-71.12-75.03-71.12-75.03,0,0-75.03-20.47-136.41-31.18-61.38-10.72-151.02,0-151.02,0,0,0-91.59,12.66-145.18,28.25-53.59,15.58-71.12,44.81-71.12,44.81l-74.06,178.3-18.29-18.94c-.86-24.25-20.35-24.91-20.35-24.91,0,0-16.45-.65-33.12-.65s-21.76,7.48-21.76,7.48c0,0-20.45,42.87,12.67,49.69,33.12,6.82,46.77-11.69,46.77-11.69l15.58,16.56c-48.72,28.25-57.48,113.02-57.48,113.02,0,0-4.87,45.79-4.87,121.8s27.29,80.86,27.29,80.86l-.98,70.15s1.11,38.52,38.14,37.86c18.34-.32,43.07-.78,53.21-1.17,36.94-1.45,37.27-30.83,37.27-30.83v-50.67c25.33,7.78,50.67,6.82,50.67,6.82,0,0,347.83,1.95,425.78.97,77.95-.97,88.66-7.78,88.66-7.78l-.1,51.63c.43,28.15,33.89,30.12,33.89,30.12l54.88-.24c20.87-.24,36.81-12.56,36.6-38.57l1.41-67.3c28.25-14.62,27.27-46.77,27.27-46.77,0,0,.47-18.5-.23-62.13,45.12.28,42.13,41.67,42.13,41.67l-.45,174.27c-1.07,22.21-22.72,36.08-50.44,36.51l-327.49,3.22s1.96-37.97-28.25-37.97l-115.95-.33c-18.37,0-23.37,13.23-24.65,22.08h-54.8s-9.2.86-9.54,8.93c-.33,8.05,8.18,9.26,8.18,9.26h55.86l.19,32.81h-54.8s-9.08.87-9.43,8.94c-.33,8.08,8.08,9.29,8.08,9.29h56.22c-.05,11.17,4.48,24.16,23.06,24.16l118.87-.17c.46,0,26.64-.17,27.29-38l360.93-2.38c42.44-.86,59.33-33.02,60.63-76.35l2.28-174.27s3.89-87.64-88.92-87.64Zm-648.82,40.23c-27.97,0-50.67-30.83-50.67-68.86s22.69-68.87,50.67-68.87c3.49,0,6.89.48,10.19,1.39-8.14,6.07-13.42,15.77-13.42,26.71,0,18.38,14.91,33.29,33.29,33.29,7.31,0,14.08-2.37,19.58-6.37.67,4.48,1.03,9.11,1.03,13.85,0,38.02-22.68,68.86-50.67,68.86Zm212.89,56.39c-75.45,0-109.66-63.23-109.66-63.23,0,0,92.88,29.96,216.95-.36,0,0-31.83,63.59-107.28,63.59Zm40.6-204.82l-63,94.18,16.88-72.76h-35.07l63-94.17-22.41,70.8,40.6,1.95Zm172.45,148.52c-27.97,0-50.67-30.87-50.67-68.94s22.69-68.96,50.67-68.96c4.07,0,8.04.66,11.84,1.9-8.76,5.81-14.54,15.77-14.54,27.08,0,17.95,14.54,32.5,32.49,32.5,7.44,0,14.31-2.51,19.79-6.72.71,4.58,1.08,9.32,1.08,14.2,0,38.07-22.68,68.94-50.67,68.94ZM153.54,343.05l60.63-143.33s20.79-29.88,57.17-39.84c36.37-9.96,106.09-21.22,106.09-21.22,0,0,100.03-13.85,175.39,0,75.34,13.85,117.35,24.69,117.35,24.69,0,0,32.91,7.35,54.13,58.88,21.22,51.53,52.41,120.82,52.41,120.82,0,0-272.17-61.49-623.15,0Z"/>
</svg>