<?xml version="1.0" encoding="UTF-8"?>
<svg id="Calque_2" data-name="Calque 2" xmlns="http://www.w3.org/2000/svg" viewBox="0 0 1046.07 729.81">
  <defs>
    <style>
      .cls-1 {
        fill: #005792;
      }

      .cls-1, .cls-2, .cls-3 {
        stroke-width: 0px;
      }

      .cls-2, .cls-4 {
        fill: #fff;
      }

      .cls-5 {
        stroke-width: .93px;
      }

      .cls-5, .cls-4, .cls-6 {
        stroke: #000;
        stroke-miterlimit: 10;
      }

      .cls-5, .cls-6, .cls-3 {
        fill: #303030;
      }

      .cls-4 {
        stroke-width: 1.03px;
      }

      .cls-6 {
        stroke-width: .84px;
      }
    </style>
  </defs>
  <path class="cls-3" d="m993.27,595.21c-1.19,54.33-52.43,61.33-52.43,61.33,0,0-6.13,1.53-50.55,0s-52.15-43.5-52.15-43.5c0,0,1.66-67.06,84.32-63.48s70.81,45.65,70.81,45.65Z"/>
  <path class="cls-3" d="m340.33,593.73s10.72,83.49,61.28,86.55,62.04,0,62.04,0c0,0,31.49-8.71,36.04-64.1,0,0-5.66-133.52-51.62-167.73s-104.17-3.59-104.17-3.59c0,0-27.06,87.85-3.57,148.87Z"/>
  <path class="cls-3" d="m195.63,553c-1.21,39.69-18.2,49.16-23.82,51.2s-55.95,0-55.95,0c-27.7-6.13-23.71-123.06-23.71-123.06,0,0-9.19-66.89,13.02-87.83,22.21-20.94,77.87,26.55,79.91,64.85s10.54,94.84,10.54,94.84Z"/>
  <ellipse class="cls-4" cx="392.03" cy="565.63" rx="43.28" ry="96.27"/>
  <ellipse class="cls-4" cx="115.86" cy="516.23" rx="22.25" ry="71.37"/>
  <ellipse class="cls-3" cx="388.96" cy="568.45" rx="19.53" ry="39.83"/>
  <ellipse class="cls-3" cx="112.45" cy="515.6" rx="7.28" ry="27.57"/>
  <path class="cls-3" d="m828.69,287.47s17.68-14.17,33-4.98,2.61,33.19,2.61,33.19c0,0-40.08-20.81-37.85-24.51l2.23-3.7Z"/>
  <path class="cls-3" d="m375.81,180.28v-115.83c0-16.6,14.3-19.15,27.34-19.25l323.21-5.09s-1.36-38.49,31.66-39.49,67.46-.47,89.78-.51c12.86-.02,31.78,0,31.75,25.53l.03,48c0,9.7,0,30.64-25.05,31.66l-104.17.51c-13.96-.51-22.47-6.64-23.49-37.28l-309.7,1.99c-9.19.06-11.74,2.1-12,9.25l.19,100.51h-29.56Z"/>
  <path class="cls-1" d="m991.39,412.2s-2.3-7.66-16.85-26.04c-14.55-18.38-117.19-74.3-117.19-74.3,0,0-109.21-94.32-151.66-120.26-16.29-9.95-15.32-13.79-75.06-25.28-59.74-11.49-336.26-6.13-336.26-6.13,0,0-89.62.77-112.6,45.19-22.98,44.43-65.87,106.47-65.87,106.47-6.89,19.91-7.66,60.51-7.66,60.51,0,0-4.6,13.79-16.17,33.7-11.57,19.91.09,75.06.09,75.06,0,0-3.06-88.85,27.57-76.6,30.64,12.26,38.3,137.87,38.3,137.87l182.3,51.32c-5.36-63.57,10.03-116,10.03-116,4.92-13.87,19.08-45.62,50.48-30.3,33.73,16.45,53.62,162.38,53.62,162.38,78.13,20.68,422.04,1.53,477.96-1.53,55.91-3.06,69.7-19.15,69.7-19.15,10.72-45.19-10.72-176.94-10.72-176.94Zm-642.64-91.42s-125.62-15.81-164.68-22.7c-39.06-6.89-19.15-35.23-19.15-35.23l38.3-62.81c107.23-44.43,134.04,0,134.04,0,0,0,31.58,75.02,36,107.23,2.55,18.59-24.51,13.51-24.51,13.51Zm74.44-.1c-34.73,4.22-59.12-125.24-41.51-133.67s265.02-5.36,298.72,2.3c0,0,119.43,85.79,157.73,120.26,0,0-180.7-17.36-414.94,11.11Z"/>
  <polyline class="cls-2" points="736.41 315.69 754.15 369.69 776.69 366.06 800.41 396.03 785.77 348.37 766.37 351.09 736.41 315.69"/>
  <ellipse class="cls-2" cx="609.94" cy="413.73" rx="50.55" ry="68.94"/>
  <ellipse class="cls-2" cx="948.41" cy="413.86" rx="44.85" ry="62.94"/>
  <path class="cls-3" d="m708.5,493.39s94.98,105.7,195.06,0c0,0-77.62,33.19-195.06,0Z"/>
  <ellipse class="cls-5" cx="635.22" cy="413.48" rx="25.28" ry="42.64"/>
  <ellipse class="cls-6" cx="970.41" cy="413.86" rx="22.85" ry="38.55"/>
  <path class="cls-3" d="m356.99,250.85s-5.43,47.99-15.13,45.95c0,0-35.74-23.49-68.43-10.21s-27.57,24.51-27.57,24.51c0,0,61.28,22.47,90.38,21.96s39.57-11.64,39.57-11.64c0,0-4.71-46.55-18.82-70.56Z"/>
  <ellipse class="cls-2" cx="646.47" cy="399.93" rx="12.44" ry="13.93"/>
  <ellipse class="cls-2" cx="978.96" cy="399.93" rx="12.44" ry="13.93"/>
  <path class="cls-3" d="m159.85,516.88s-2.44,15.57,35.79,26.3,123.25,34.47,123.25,34.47c0,0,11.46-.77,11.86-9.19,0,0-5.56,8.85-28.88,2.38s-115.74-33.19-115.74-33.19c0,0-23.6-11.06-26.27-20.77Z"/>
  <path class="cls-3" d="m159.81,499.18s-29.7-158.98-4.17-211.74c0,0-19.06,57.36,4.17,211.74Z"/>
  <path class="cls-3" d="m668.67,422.92s115.57,13.28,231.15-1.53c0,0-141.62,10.04-231.15,1.53Z"/>
  <path class="cls-3" d="m421.86,333.06s33.02,72.67,129.02,80.42c0,0-78.64-1.77-129.02-80.42Z"/>
  <path class="cls-3" d="m879.56,27.18h43.62s4.43,1.26,4.87,6.29-4.65,5.97-4.65,5.97h-43.84v-12.26Z"/>
  <path class="cls-3" d="m878.28,63.18h44.76s4.54,1.26,5,6.29-4.77,5.97-4.77,5.97h-44.99v-12.26Z"/>
</svg>