<?xml version="1.0" encoding="UTF-8"?>
<svg id="Calque_2" data-name="Calque 2" xmlns="http://www.w3.org/2000/svg" viewBox="0 0 1046.07 642.27">
  <defs>
    <style>
      .cls-1 {
        fill: #005792;
      }

      .cls-1, .cls-2, .cls-3 {
        stroke-width: 0px;
      }

      .cls-2, .cls-4 {
        fill: #fff;
      }

      .cls-4 {
        stroke: #000;
        stroke-miterlimit: 10;
        stroke-width: 1.03px;
      }

      .cls-3 {
        fill: #303030;
      }
    </style>
  </defs>
  <path class="cls-3" d="m999.1,486.28c14.14,52.47-33.07,73.6-33.07,73.6,0,0-5.45,3.19-48.51,14.21-43.06,11.02-62.27-27.08-62.27-27.08,0,0-17.26-64.82,63.07-84.63s80.79,23.9,80.79,23.9Z"/>
  <path class="cls-3" d="m325.5,490.49s-6.17,83.95,42.75,97.05c48.92,13.1,60.79,12.39,60.79,12.39,0,0,32.59-2.25,48.12-55.61,0,0,21.13-131.95-17.07-174.66s-101.35-24.33-101.35-24.33c0,0-44.07,80.67-33.24,145.15Z"/>
  <path class="cls-3" d="m176.7,474.85c-9.11,38.65-27.65,44.53-33.56,45.41s-54.83-11.18-54.83-11.18c-25.92-11.54,1.36-125.32,1.36-125.32,0,0,4.36-67.38,30.31-83.46,25.95-16.08,71,41.58,65.35,79.51-5.65,37.93-8.62,95.03-8.62,95.03Z"/>
  <ellipse class="cls-4" cx="381.77" cy="473.29" rx="96.27" ry="43.28" transform="translate(-158.24 752.81) rotate(-78.48)"/>
  <ellipse class="cls-4" cx="105.88" cy="422.89" rx="71.37" ry="22.25" transform="translate(-329.64 442.15) rotate(-78.48)"/>
  <ellipse class="cls-3" cx="378.21" cy="475.44" rx="39.83" ry="19.53" transform="translate(-163.21 751.04) rotate(-78.48)"/>
  <ellipse class="cls-3" cx="102.67" cy="421.59" rx="27.57" ry="7.28" transform="translate(-330.94 437.97) rotate(-78.48)"/>
  <path class="cls-3" d="m828.69,199.94s17.68-14.17,33-4.98,2.61,33.19,2.61,33.19c0,0-40.08-20.81-37.85-24.51l2.23-3.7Z"/>
  <path class="cls-1" d="m991.39,335.47s-2.3-7.66-16.85-26.04c-14.55-18.38-117.19-74.3-117.19-74.3,0,0-109.21-94.32-151.66-120.26-16.29-9.95-15.32-13.79-75.06-25.28-59.74-11.49-336.26-6.13-336.26-6.13,0,0-89.62.77-112.6,45.19-22.98,44.43-65.87,106.47-65.87,106.47-6.89,19.91-7.66,60.51-7.66,60.51,0,0-4.6,13.79-16.17,33.7-11.57,19.91-8.8,85.94-8.8,85.94,0,0,12.46-73.77,36.46-87.47,28.66-16.36,38.3,137.87,38.3,137.87l167.7,47.21c-5.36-63.57,24.63-111.89,24.63-111.89,12.44-19.66,31.42-34.82,50.48-30.3,36.52,8.66,53.62,162.38,53.62,162.38,78.13,20.68,422.04,1.53,477.96-1.53,55.91-3.06,69.7-19.15,69.7-19.15,10.72-45.19-10.72-176.94-10.72-176.94Zm-642.64-91.42s-125.62-15.81-164.68-22.7c-39.06-6.89-19.15-35.23-19.15-35.23l38.3-62.81c107.23-44.43,134.04,0,134.04,0,0,0,31.58,75.02,36,107.23,2.55,18.59-24.51,13.51-24.51,13.51Zm74.44-.1c-34.73,4.22-59.12-125.24-41.51-133.67s265.02-5.36,298.72,2.3c0,0,119.43,85.79,157.73,120.26,0,0-180.7-17.36-414.94,11.11Z"/>
  <path class="cls-3" d="m921.89,280.78l-40.12-17.31c-4.13,9.4-12.78,25.97-34.83,17.5l-95.85-40.81c-12.61-6-18-15-6.8-43.54l-285.14-120.88c-8.46-3.59-11.61-2.72-14.68,3.74l-1,2.89-33.31-.11,13.42-28.48c6.58-15.24,20.72-11.92,32.73-6.84l298.77,123.39s14-35.88,44.72-23.71c31.35,12.42,62.12,26.3,82.63,35.1,11.82,5.08,29.18,12.59,19.04,36.02l-.61,1.4,40.05,17.28s3.56,2.91,1.98,7.7c-1.59,4.79-6.63,3.64-6.63,3.64l-40.24-17.37-9.4,21.8,39.91,17.22s3.67,2.96,2.1,7.76c-1.58,4.8-6.75,3.59-6.75,3.59Z"/>
  <polyline class="cls-2" points="736.41 238.96 754.15 292.96 776.69 289.33 800.41 319.3 785.77 271.64 766.37 274.37 736.41 238.96"/>
  <path class="cls-3" d="m708.5,416.66s101.45,46.97,195.06,0c0,0-77.62,33.19-195.06,0Z"/>
  <path class="cls-3" d="m356.99,174.12s-5.43,47.99-15.13,45.95c0,0-35.74-23.49-68.43-10.21s-27.57,24.51-27.57,24.51c0,0,61.28,22.47,90.38,21.96s39.57-11.64,39.57-11.64c0,0-4.71-46.55-18.82-70.56Z"/>
  <path class="cls-3" d="m159.85,440.15s-2.44,15.57,35.79,26.3,123.25,34.47,123.25,34.47c0,0,11.46-.77,11.86-9.19,0,0-5.56,8.85-28.88,2.38s-115.74-33.19-115.74-33.19c0,0-23.6-11.06-26.27-20.77Z"/>
  <path class="cls-3" d="m159.81,422.45s-29.7-158.98-4.17-211.74c0,0-19.06,57.36,4.17,211.74Z"/>
  <path class="cls-3" d="m668.67,346.2s115.57,13.28,231.15-1.53c0,0-141.62,10.04-231.15,1.53Z"/>
  <path class="cls-3" d="m421.86,256.33s33.02,72.67,129.02,80.42c0,0-78.64-1.77-129.02-80.42Z"/>
  <path class="cls-2" d="m565.01,329.77s38.81,95.25,99.57,13.01c0,0-49.79,48.51-99.57-13.01Z"/>
  <path class="cls-2" d="m902.64,331.95s54.53,81.56,84.41-5.9c0,0-30.78,58.47-84.41,5.9Z"/>
  <path class="cls-1" d="m824.06,24.31l12.61,21.24s34.21-20.94,64.34-20.43l-43.91,78.64s81.19-20.43,107.68-16.73l-4.57-22.07s-31.12.5-53.75,7.65L939.82.05s-62.65-2.29-115.76,24.26Z"/>
  <path class="cls-1" d="m771.16,94.38l6.3,10.62s17.11-10.47,32.17-10.21l-21.96,39.32s40.6-10.21,53.84-8.37l-2.28-11.03s-15.56.25-26.88,3.83l16.68-36.28s-31.33-1.15-57.88,12.13Z"/>
</svg>